<svg width="54" height="53" viewBox="0 0 54 53" fill="none" xmlns="http://www.w3.org/2000/svg">
<g clip-path="url(#clip0)">
<path d="M27.3336 21.0315C32.2835 21.0315 36.2961 17.0755 36.2961 12.1956C36.2961 7.3156 32.2835 3.35962 27.3336 3.35962C22.3837 3.35962 18.3711 7.3156 18.3711 12.1956C18.3711 17.0755 22.3837 21.0315 27.3336 21.0315Z" fill="white"/>
<path d="M45.4648 21.0314C48.594 21.0314 51.1307 18.5305 51.1307 15.4454C51.1307 12.3604 48.594 9.8595 45.4648 9.8595C42.3356 9.8595 39.7988 12.3604 39.7988 15.4454C39.7988 18.5305 42.3356 21.0314 45.4648 21.0314Z" fill="white"/>
<path d="M9.20209 21.0314C12.3313 21.0314 14.868 18.5305 14.868 15.4454C14.868 12.3604 12.3313 9.8595 9.20209 9.8595C6.07287 9.8595 3.53613 12.3604 3.53613 15.4454C3.53613 18.5305 6.07287 21.0314 9.20209 21.0314Z" fill="white"/>
<path d="M14.7848 26.0477C12.5545 24.2462 10.5347 24.4847 7.95582 24.4847C4.09885 24.4847 0.960938 27.56 0.960938 31.3391V42.4308C0.960938 44.072 2.31974 45.4066 3.99068 45.4066C11.2046 45.4066 10.3355 45.5353 10.3355 45.0999C10.3355 37.2403 9.39126 31.4766 14.7848 26.0477Z" fill="white"/>
<path d="M29.786 24.5251C25.2817 24.1547 21.3665 24.5294 17.9895 27.2775C12.3382 31.7401 13.4258 37.7489 13.4258 45.0996C13.4258 47.0445 15.0308 48.6564 17.0335 48.6564C38.7786 48.6564 39.644 49.3479 40.9335 46.5327C41.3564 45.5807 41.2405 45.8832 41.2405 36.7756C41.2405 29.5417 34.8871 24.5251 29.786 24.5251Z" fill="white"/>
<path d="M46.7109 24.4846C44.1179 24.4846 42.1092 24.2485 39.8818 26.0476C45.2351 31.4361 44.3312 36.8066 44.3312 45.0997C44.3312 45.5379 43.6097 45.4064 50.5678 45.4064C52.2985 45.4064 53.7057 44.0242 53.7057 42.325V31.339C53.7057 27.5599 50.5678 24.4846 46.7109 24.4846Z" fill="white"/>
</g>
<defs>
<clipPath id="clip0">
<rect width="52.7449" height="52" fill="white" transform="translate(0.960938 0.0455322)"/>
</clipPath>
</defs>
</svg>
