<svg width="55" height="55" viewBox="0 0 55 55" fill="none" xmlns="http://www.w3.org/2000/svg">
<path d="M46.3081 8.12009C35.7832 -2.40163 18.7215 -2.39911 8.19976 8.12588C-2.32197 18.6509 -2.31944 35.7125 8.20554 46.2342C18.7305 56.756 35.7922 56.7534 46.3139 46.2285C51.367 41.1737 54.2051 34.3187 54.2035 27.1714C54.202 20.0252 51.362 13.1724 46.3081 8.12009ZM41.1199 37.7669C41.1188 37.768 41.1176 37.7693 41.1164 37.7705V37.7615L39.751 39.1178C37.9853 40.9059 35.4137 41.6415 32.9694 41.058C30.5068 40.3988 28.1659 39.3496 26.0352 37.9501C24.0557 36.685 22.2212 35.2061 20.565 33.5398C19.0412 32.0271 17.6721 30.3661 16.4781 28.5817C15.172 26.6615 14.1382 24.5698 13.4061 22.3659C12.5669 19.7769 13.2624 16.9361 15.2026 15.0275L16.8014 13.4287C17.2459 12.9822 17.9682 12.9806 18.4146 13.4251C18.4158 13.4263 18.4171 13.4274 18.4182 13.4287L23.4662 18.4767C23.9127 18.9212 23.9143 19.6435 23.4698 20.0899C23.4686 20.091 23.4675 20.0922 23.4662 20.0935L20.5021 23.0576C19.6516 23.8988 19.5446 25.2356 20.2506 26.2014C21.3227 27.6727 22.5091 29.0572 23.7986 30.3422C25.2364 31.7862 26.7994 33.0997 28.4693 34.2675C29.4342 34.9405 30.7424 34.8271 31.5771 33.998L34.4424 31.0878C34.8869 30.6413 35.6092 30.6397 36.0556 31.0842C36.0568 31.0854 36.058 31.0865 36.0592 31.0878L41.1163 36.1538C41.5629 36.5982 41.5644 37.3204 41.1199 37.7669Z" fill="white"/>
</svg>
