<svg width="123" height="84" viewBox="0 0 123 84" fill="none" xmlns="http://www.w3.org/2000/svg">
<path d="M0.407486 65.0335C0.407486 66.2885 1.28696 67.2734 2.54199 67.2734H5.94995C8.23984 62.2224 13.4534 58.4003 19.5069 58.4003C25.5607 58.4003 30.7731 62.2224 33.0641 67.2734H77.3613V49.1492H0.407486V65.0335Z" fill="white"/>
<path d="M19.5069 63.1897C13.9588 63.1897 9.4613 67.6872 9.4613 73.2353C9.4613 78.7834 13.9588 83.2809 19.5069 83.2809C25.0523 83.2746 29.5463 78.7807 29.5525 73.2353C29.5525 67.6875 25.055 63.1897 19.5069 63.1897Z" fill="white"/>
<path d="M121.513 41.7669L111.946 37.5618H82.1152V67.2737H87.9055C90.1968 62.2227 95.4089 58.4005 101.462 58.4005C107.516 58.4005 112.729 62.2227 115.019 67.2737H120.686C121.941 67.2737 122.821 66.2887 122.821 65.0337V43.9281C122.852 43.0121 122.339 42.1641 121.513 41.7669Z" fill="white"/>
<path d="M102.11 20.4312C100.916 18.1419 98.5322 16.7226 95.9506 16.7636H82.1152V32.808H108.534L102.11 20.4312Z" fill="white"/>
<path d="M70.5383 0.718994H7.19486C3.3742 0.718994 0.407471 3.8643 0.407471 7.68495V44.3955H77.3613V7.68495C77.3613 7.67425 77.3616 7.66356 77.3616 7.65286C77.3922 3.85419 74.3372 0.749597 70.5383 0.718994Z" fill="white"/>
<path d="M101.462 63.1897C95.9138 63.19 91.4163 67.6875 91.4166 73.2356C91.4169 78.7837 95.9144 83.2812 101.462 83.2809C107.008 83.2746 111.502 78.7807 111.508 73.2353V73.235C111.507 67.6872 107.01 63.1897 101.462 63.1897Z" fill="white"/>
</svg>
