<svg width="49" height="48" viewBox="0 0 49 48" fill="none" xmlns="http://www.w3.org/2000/svg">
<g clip-path="url(#clip0)">
<path d="M45.6839 0.331909H3.94338C2.29677 0.331909 0.961914 1.64791 0.961914 3.27127V36.584C0.961914 38.2074 2.29677 39.5234 3.94338 39.5234H27.7951V37.5638H3.94338C3.39451 37.5638 2.94953 37.1251 2.94953 36.584V3.27127C2.94953 2.73015 3.39451 2.29145 3.94338 2.29145H45.6839C46.2327 2.29145 46.6777 2.73015 46.6777 3.27127V36.584C46.6777 37.1251 46.2327 37.5638 45.6839 37.5638H43.6963V39.5234H45.6839C47.3305 39.5234 48.6653 38.2074 48.6653 36.584V3.27127C48.6653 1.64791 47.3305 0.331909 45.6839 0.331909Z" fill="white"/>
<path d="M42.7021 10.1298C40.5066 10.1298 38.7268 8.37512 38.7268 6.21065C38.7268 5.66953 38.2818 5.23083 37.7329 5.23083H11.8937C11.3448 5.23083 10.8998 5.66953 10.8998 6.21065C10.8998 8.37512 9.11999 10.1298 6.92452 10.1298C6.37565 10.1298 5.93066 10.5685 5.93066 11.1096V28.7458C5.93066 29.2869 6.37565 29.7256 6.92452 29.7256C9.11999 29.7256 10.8998 31.4803 10.8998 33.6448C10.8998 34.1859 11.3448 34.6246 11.8937 34.6246H24.8134V32.6649H12.805C12.3775 30.1997 10.4189 28.2687 7.91837 27.8473V12.0081C10.4189 11.5866 12.3775 9.65567 12.805 7.19047H36.8217C37.2492 9.65567 39.2078 11.5866 41.7083 12.0081V19.9277H43.6959V11.1096C43.6959 10.5684 43.2509 10.1298 42.7021 10.1298Z" fill="white"/>
<path d="M35.7452 20.9073C30.8054 20.9073 26.8008 24.8554 26.8008 29.7254C26.8008 34.5955 30.8054 38.5435 35.7452 38.5435C40.6826 38.5375 44.6835 34.5931 44.6896 29.7254C44.6896 24.8554 40.685 20.9073 35.7452 20.9073ZM35.7452 36.5839C31.9031 36.5839 28.7884 33.5133 28.7884 29.7254C28.7884 25.9376 31.903 22.8669 35.7452 22.8669C39.5855 22.8712 42.6976 25.9393 42.702 29.7254C42.7019 33.5132 39.5873 36.5839 35.7452 36.5839Z" fill="white"/>
<path d="M39.7204 35.6042V44.343L36.3662 41.6975C36.0031 41.4109 35.4871 41.4109 35.124 41.6975L31.7698 44.343V35.6042H29.7822V46.3819C29.7821 46.6046 29.859 46.8207 30.0002 46.9946C30.3433 47.4171 30.9688 47.4853 31.3972 47.1471L35.7452 43.7179L40.0932 47.1471C40.2694 47.2861 40.4886 47.3618 40.7143 47.3617C41.2632 47.3617 41.7082 46.923 41.7082 46.3819V35.6042H39.7204Z" fill="white"/>
<path d="M34.7511 10.1298H14.8747C14.3258 10.1298 13.8809 10.5685 13.8809 11.1096V15.0287C13.8809 15.5698 14.3258 16.0085 14.8747 16.0085H34.7511C35.3 16.0085 35.745 15.5698 35.745 15.0287V11.1095C35.745 10.5684 35.3 10.1298 34.7511 10.1298ZM33.7573 14.0488H15.8685V12.0893H33.7573V14.0488Z" fill="white"/>
<path d="M14.8743 18.9479H12.8867V20.9074H14.8743V18.9479Z" fill="white"/>
<path d="M18.8499 18.9479H16.8623V20.9074H18.8499V18.9479Z" fill="white"/>
<path d="M24.8126 22.8669H12.8867V24.8265H24.8126V22.8669Z" fill="white"/>
<path d="M35.7445 24.8265C33.0001 24.8265 30.7754 27.0199 30.7754 29.7254C30.7754 32.431 33.0001 34.6243 35.7445 34.6243C38.4875 34.6211 40.7103 32.4296 40.7135 29.7254C40.7135 27.0199 38.4888 24.8265 35.7445 24.8265ZM35.7445 32.6648C34.0979 32.6648 32.763 31.3488 32.763 29.7254C32.763 28.1021 34.0979 26.7861 35.7445 26.7861C37.3911 26.7861 38.7259 28.1021 38.7259 29.7254C38.7259 31.3488 37.3911 32.6648 35.7445 32.6648Z" fill="white"/>
<path d="M7.91828 32.6648H5.93066V34.6243H7.91828V32.6648Z" fill="white"/>
<path d="M43.6956 5.23083H41.708V7.19038H43.6956V5.23083Z" fill="white"/>
<path d="M7.91828 5.23083H5.93066V7.19038H7.91828V5.23083Z" fill="white"/>
</g>
<defs>
<clipPath id="clip0">
<rect width="47.7038" height="47.0301" fill="white" transform="translate(0.960938 0.331909)"/>
</clipPath>
</defs>
</svg>
