<svg width="34" height="34" viewBox="0 0 34 34" fill="none" xmlns="http://www.w3.org/2000/svg">
<circle cx="17.117" cy="16.922" r="15.8742" stroke="white"/>
<path d="M26.6705 23.3145C25.3133 25.3429 23.3456 26.8867 21.0526 27.7223C18.7595 28.5579 16.2599 28.642 13.9159 27.9623C11.5718 27.2827 9.50496 25.8746 8.01451 23.942C6.52407 22.0093 5.68743 19.6525 5.62574 17.2127C5.56406 14.7729 6.28053 12.3767 7.67141 10.3713C9.06229 8.36578 11.0554 6.85505 13.3621 6.05782C15.6688 5.26058 18.1694 5.21823 20.5018 5.93689C22.8341 6.65555 24.8773 8.09793 26.3352 10.0552L23.4466 12.207C22.4455 10.8631 21.0426 9.8727 19.4411 9.37924C17.8396 8.88578 16.1226 8.91486 14.5387 9.46227C12.9548 10.0097 11.5863 11.047 10.6313 12.424C9.67624 13.8011 9.18428 15.4464 9.22664 17.1216C9.269 18.7969 9.84346 20.4152 10.8669 21.7422C11.8903 23.0692 13.3095 24.0361 14.919 24.5028C16.5285 24.9694 18.2448 24.9117 19.8193 24.3379C21.3938 23.7642 22.7449 22.7042 23.6768 21.3114L26.6705 23.3145Z" fill="white"/>
</svg>
