<svg width="82" height="81" viewBox="0 0 82 81" fill="none" xmlns="http://www.w3.org/2000/svg">
<g clip-path="url(#clip0)">
<path d="M75.8097 41.5492C75.4838 40.8823 75.4838 40.1176 75.8097 39.4509L78.8307 33.2708C80.5127 29.8297 79.18 25.7283 75.7967 23.9332L69.7201 20.709C69.0646 20.3613 68.6151 19.7424 68.4868 19.0117L67.2984 12.236C66.6366 8.46355 63.147 5.92852 59.3554 6.46499L52.5443 7.42844C51.8091 7.53222 51.0822 7.29586 50.5489 6.77997L45.6049 1.9972C42.852 -0.665979 38.5394 -0.666137 35.7867 1.9972L30.8426 6.78044C30.3091 7.2965 29.5822 7.53238 28.8472 7.42891L22.0361 6.46546C18.2432 5.92868 14.7548 8.46403 14.0931 12.2365L12.9047 19.0118C12.7764 19.7427 12.3269 20.3615 11.6715 20.7094L5.59494 23.9335C2.21163 25.7285 0.878932 29.8302 2.56094 33.2712L5.58181 39.4512C5.90771 40.1181 5.90771 40.8828 5.58181 41.5495L2.56078 47.7295C0.878774 51.1705 2.21147 55.2719 5.59478 57.0671L11.6713 60.2912C12.3269 60.6389 12.7764 61.2578 12.9047 61.9886L14.0931 68.7642C14.6955 72.1985 17.6403 74.6069 21.0247 74.6066C21.358 74.6066 21.6963 74.5832 22.0363 74.5351L28.8473 73.5717C29.5819 73.4674 30.3093 73.7042 30.8427 74.2201L35.7867 79.0029C37.1634 80.3346 38.9293 81.0004 40.6957 81.0002C42.4618 81.0001 44.2287 80.3343 45.6048 79.0029L50.5489 74.2201C51.0823 73.7042 51.8094 73.4685 52.5443 73.5717L59.3554 74.5351C63.1487 75.0717 66.6366 72.5365 67.2984 68.7641L68.487 61.9887C68.6153 61.2578 69.0647 60.6391 69.7201 60.2912L75.7967 57.0671C79.18 55.2721 80.5127 51.1704 78.8307 47.7293L75.8097 41.5492ZM31.3522 19.4773C36.0748 19.4773 39.9171 23.3195 39.9171 28.0422C39.9171 32.7648 36.0748 36.6071 31.3522 36.6071C26.6295 36.6071 22.7872 32.7648 22.7872 28.0422C22.7872 23.3195 26.6295 19.4773 31.3522 19.4773ZM26.9314 57.5676C26.4753 58.0237 25.8774 58.2518 25.2797 58.2518C24.682 58.2518 24.084 58.0239 23.6281 57.5676C22.7159 56.6554 22.7159 55.1764 23.6281 54.2642L54.46 23.4323C55.372 22.5201 56.8512 22.5201 57.7634 23.4323C58.6756 24.3445 58.6756 25.8236 57.7634 26.7357L26.9314 57.5676ZM50.039 61.523C45.3163 61.523 41.4741 57.6807 41.4741 52.9581C41.4741 48.2354 45.3163 44.3932 50.039 44.3932C54.7617 44.3932 58.6039 48.2354 58.6039 52.9581C58.6039 57.6807 54.7617 61.523 50.039 61.523Z" fill="white"/>
<path d="M50.039 49.0649C47.8924 49.0649 46.1458 50.8113 46.1458 52.958C46.1458 55.1046 47.8922 56.851 50.039 56.851C52.1857 56.851 53.932 55.1046 53.932 52.958C53.932 50.8113 52.1857 49.0649 50.039 49.0649Z" fill="white"/>
<path d="M31.3521 24.1489C29.2055 24.1489 27.4591 25.8953 27.4591 28.042C27.4591 30.1886 29.2055 31.9352 31.3521 31.9352C33.4988 31.9352 35.2453 30.1888 35.2453 28.042C35.2452 25.8955 33.4988 24.1489 31.3521 24.1489Z" fill="white"/>
</g>
<defs>
<clipPath id="clip0">
<rect width="81" height="81" fill="white" transform="translate(0.195679)"/>
</clipPath>
</defs>
</svg>
