<svg width="84" height="82" viewBox="0 0 84 82" fill="none" xmlns="http://www.w3.org/2000/svg">
<g clip-path="url(#clip0)">
<path d="M83.7545 41.0454L76.6509 31.9035L78.2399 20.5454L67.3975 16.2977L63.098 5.58595L51.6014 7.15577L42.2545 0.0454102L33.0011 7.06343L21.5045 5.49361L17.205 16.2053L6.36262 20.4531L7.95159 31.8112L0.754517 41.0454L7.85812 50.1873L6.26916 61.5454L17.1115 65.7931L21.411 76.5049L32.9077 74.935L42.161 81.9531L51.4144 74.935L62.911 76.5049L67.2106 65.7931L78.0529 61.4531L76.464 50.095L83.7545 41.0454ZM38.8897 54.3427L25.0563 43.0769L28.0473 39.4756L38.3288 47.7864L55.9009 27.7481L59.4527 30.7954L38.8897 54.3427Z" fill="white"/>
</g>
<defs>
<clipPath id="clip0">
<rect width="83" height="82" fill="white" transform="translate(0.754517)"/>
</clipPath>
</defs>
</svg>
