<svg width="46" height="46" viewBox="0 0 46 46" fill="none" xmlns="http://www.w3.org/2000/svg">
<path d="M33.2748 0.676025H12.895C6.26221 0.676025 0.866211 6.07203 0.866211 12.7048V33.0849C0.866211 39.7174 6.26221 45.1134 12.895 45.1134H33.2751C39.9076 45.1134 45.3036 39.7174 45.3036 33.0849V12.7048C45.3036 6.07203 39.9076 0.676025 33.2748 0.676025V0.676025ZM23.0849 35.0452C16.385 35.0452 10.9344 29.5946 10.9344 22.8947C10.9344 16.1948 16.385 10.7442 23.0849 10.7442C29.7848 10.7442 35.2354 16.1948 35.2354 22.8947C35.2354 29.5946 29.7848 35.0452 23.0849 35.0452ZM35.5259 13.6097C33.546 13.6097 31.9356 11.9993 31.9356 10.0194C31.9356 8.03942 33.546 6.42869 35.5259 6.42869C37.5059 6.42869 39.1166 8.03942 39.1166 10.0194C39.1166 11.9993 37.5059 13.6097 35.5259 13.6097Z" fill="white"/>
<path d="M23.0854 13.3495C17.8223 13.3495 13.54 17.6314 13.54 22.8949C13.54 28.158 17.8223 32.4403 23.0854 32.4403C28.3489 32.4403 32.6308 28.158 32.6308 22.8949C32.6308 17.6314 28.3489 13.3495 23.0854 13.3495Z" fill="white"/>
<path d="M35.5262 9.03381C34.9831 9.03381 34.541 9.47591 34.541 10.019C34.541 10.5622 34.9831 11.0043 35.5262 11.0043C36.0697 11.0043 36.5118 10.5625 36.5118 10.019C36.5118 9.47557 36.0697 9.03381 35.5262 9.03381Z" fill="white"/>
</svg>
