<svg width="30" height="31" viewBox="0 0 30 31" fill="none" xmlns="http://www.w3.org/2000/svg">
<g filter="url(#filter0_d)">
<path d="M19.8288 4.96441H10.0563C6.87581 4.96441 4.28833 7.55188 4.28833 10.7324V20.505C4.28833 23.6854 6.87581 26.2729 10.0563 26.2729H19.829C23.0093 26.2729 25.5968 23.6854 25.5968 20.505V10.7324C25.5968 7.55188 23.0093 4.96441 19.8288 4.96441V4.96441ZM14.9426 21.445C11.7298 21.445 9.1162 18.8314 9.1162 15.6186C9.1162 12.4059 11.7298 9.79227 14.9426 9.79227C18.1553 9.79227 20.7689 12.4059 20.7689 15.6186C20.7689 18.8314 18.1553 21.445 14.9426 21.445ZM20.9083 11.1663C19.9589 11.1663 19.1866 10.3941 19.1866 9.44469C19.1866 8.49528 19.9589 7.72291 20.9083 7.72291C21.8577 7.72291 22.6301 8.49528 22.6301 9.44469C22.6301 10.3941 21.8577 11.1663 20.9083 11.1663Z" fill="white"/>
<path d="M14.9427 11.0415C12.4189 11.0415 10.3655 13.0947 10.3655 15.6187C10.3655 18.1424 12.4189 20.1958 14.9427 20.1958C17.4666 20.1958 19.5198 18.1424 19.5198 15.6187C19.5198 13.0947 17.4666 11.0415 14.9427 11.0415Z" fill="white"/>
<path d="M20.9083 8.97227C20.6479 8.97227 20.4359 9.18426 20.4359 9.4447C20.4359 9.70513 20.6479 9.91713 20.9083 9.91713C21.1689 9.91713 21.3809 9.7053 21.3809 9.4447C21.3809 9.1841 21.1689 8.97227 20.9083 8.97227Z" fill="white"/>
</g>
<defs>
<filter id="filter0_d" x="0.28833" y="0.964405" width="29.3085" height="29.3085" filterUnits="userSpaceOnUse" color-interpolation-filters="sRGB">
<feFlood flood-opacity="0" result="BackgroundImageFix"/>
<feColorMatrix in="SourceAlpha" type="matrix" values="0 0 0 0 0 0 0 0 0 0 0 0 0 0 0 0 0 0 127 0"/>
<feOffset/>
<feGaussianBlur stdDeviation="2"/>
<feColorMatrix type="matrix" values="0 0 0 0 1 0 0 0 0 1 0 0 0 0 1 0 0 0 0.25 0"/>
<feBlend mode="normal" in2="BackgroundImageFix" result="effect1_dropShadow"/>
<feBlend mode="normal" in="SourceGraphic" in2="effect1_dropShadow" result="shape"/>
</filter>
</defs>
</svg>
