<svg width="339" height="200" viewBox="0 0 339 200" fill="none" xmlns="http://www.w3.org/2000/svg">
<path d="M117.011 100.375C116.919 100.206 117.042 100 117.234 100H300.616C300.825 100 301.013 99.9991 301.222 100.006C304.706 100.121 338.179 102.445 338.179 149.161C338.179 186.943 314.161 193.672 302.954 194.756C299.201 195.118 295.43 194.919 291.66 194.973L218.076 196.027H86.8414L101.986 187.147L109.141 181.563C114.203 177.612 118.445 172.713 121.631 167.138C124.96 161.311 127.067 154.867 127.822 148.199L128.075 145.96C128.552 141.746 128.584 137.494 128.169 133.274L128.069 132.258C127.151 122.926 124.366 113.874 119.88 105.64L117.011 100.375Z" fill="#219653"/>
<path d="M178.829 175.943C177.103 175.895 175.473 175.871 173.938 175.871C172.404 175.871 170.966 175.871 169.623 175.871C166.891 175.871 164.541 175.895 162.576 175.943C160.634 176.015 159.016 176.075 157.721 176.123C156.235 176.195 154.976 176.267 153.945 176.338C154.113 174.732 154.257 173.102 154.377 171.448C154.521 169.794 154.641 168.164 154.737 166.558C154.832 164.952 154.916 163.393 154.988 161.883C155.06 160.373 155.12 158.947 155.168 157.604C155.264 154.488 155.324 151.479 155.348 148.578C155.324 145.702 155.264 142.753 155.168 139.733C155.12 138.438 155.06 137.084 154.988 135.669C154.916 134.231 154.832 132.769 154.737 131.282C154.641 129.796 154.521 128.31 154.377 126.824C154.257 125.313 154.113 123.851 153.945 122.437L164.553 121.897C164.098 127.315 163.786 132.541 163.618 137.575C163.451 142.585 163.367 147.212 163.367 151.455C163.367 155.53 163.403 159.018 163.475 161.919C163.57 164.82 163.654 167.025 163.726 168.535H163.87C165.74 168.535 167.562 168.392 169.336 168.104C171.134 167.816 172.74 167.493 174.154 167.133C175.808 166.726 177.367 166.258 178.829 165.731C178.805 165.994 178.793 166.33 178.793 166.738C178.769 167.073 178.757 167.517 178.757 168.068C178.757 168.595 178.757 169.243 178.757 170.01C178.757 170.777 178.757 171.652 178.757 172.635C178.757 173.594 178.781 174.696 178.829 175.943ZM203.764 174.037L194.271 175.008C194.319 173.402 194.355 171.736 194.379 170.01C194.427 168.26 194.463 166.522 194.487 164.796C194.511 163.07 194.535 161.38 194.559 159.726C194.583 158.048 194.594 156.465 194.594 154.979C194.618 151.479 194.63 148.039 194.63 144.659C194.606 141.638 194.571 138.714 194.523 135.885C194.499 134.686 194.463 133.452 194.415 132.181C194.391 130.911 194.355 129.664 194.307 128.442C194.259 127.219 194.199 126.068 194.127 124.99C194.079 123.887 194.007 122.904 193.911 122.041L202.973 121.61C202.925 123.096 202.877 124.63 202.829 126.212C202.805 127.77 202.781 129.329 202.757 130.887C202.733 132.421 202.709 133.907 202.685 135.346C202.685 136.784 202.685 138.126 202.685 139.373C202.685 145.63 202.757 151.599 202.901 157.28C203.069 162.938 203.356 168.523 203.764 174.037ZM248.764 161.308C248.524 164.017 247.901 166.27 246.894 168.068C245.911 169.842 244.701 171.268 243.262 172.347C241.824 173.402 240.23 174.145 238.48 174.577C236.754 175.008 235.028 175.224 233.302 175.224C231.504 175.224 229.766 174.972 228.088 174.469C226.434 173.989 224.971 173.258 223.701 172.275C222.43 171.292 221.411 170.058 220.644 168.571C219.901 167.085 219.53 165.347 219.53 163.357C219.53 161.823 219.757 160.541 220.213 159.51C220.692 158.479 221.28 157.652 221.975 157.029C222.67 156.405 223.413 155.974 224.204 155.734C224.995 155.471 225.726 155.339 226.398 155.339C227.093 155.339 227.812 155.447 228.555 155.662C229.298 155.878 229.982 156.238 230.605 156.741C231.228 157.244 231.732 157.928 232.115 158.791C232.523 159.63 232.726 160.685 232.726 161.955C232.726 161.979 232.702 162.207 232.655 162.638C232.631 163.046 232.499 163.525 232.259 164.077C232.019 164.604 231.648 165.131 231.144 165.659C230.665 166.162 229.958 166.522 229.023 166.738C229.694 167.577 230.473 168.212 231.36 168.643C232.271 169.051 233.038 169.255 233.661 169.255C234.285 169.255 234.992 169.147 235.783 168.931C236.598 168.715 237.353 168.356 238.048 167.852C238.767 167.325 239.367 166.642 239.846 165.803C240.35 164.94 240.601 163.861 240.601 162.566C240.601 161.056 240.338 159.714 239.81 158.539C239.307 157.364 238.648 156.334 237.833 155.447C237.041 154.536 236.142 153.745 235.136 153.073C234.153 152.378 233.194 151.755 232.259 151.203C231.636 150.844 230.893 150.424 230.03 149.945C229.167 149.441 228.268 148.854 227.333 148.183C226.398 147.488 225.475 146.709 224.564 145.846C223.653 144.959 222.826 143.964 222.083 142.861C221.364 141.734 220.776 140.488 220.321 139.121C219.889 137.755 219.673 136.245 219.673 134.591C219.673 132.121 220.105 129.964 220.968 128.118C221.831 126.248 222.946 124.69 224.312 123.443C225.703 122.197 227.273 121.262 229.023 120.639C230.773 120.015 232.547 119.704 234.345 119.704C236.142 119.704 237.857 119.955 239.487 120.459C241.117 120.938 242.543 121.645 243.766 122.58C245.012 123.491 245.995 124.594 246.714 125.889C247.457 127.159 247.829 128.585 247.829 130.168C247.829 131.774 247.565 133.044 247.038 133.979C246.511 134.914 245.875 135.621 245.132 136.101C244.413 136.58 243.67 136.892 242.903 137.036C242.16 137.156 241.56 137.216 241.105 137.216C240.529 137.216 239.93 137.108 239.307 136.892C238.684 136.676 238.108 136.353 237.581 135.921C237.077 135.49 236.658 134.962 236.322 134.339C235.987 133.716 235.819 132.984 235.819 132.145C235.843 131.618 235.903 131.091 235.999 130.563C236.095 130.108 236.238 129.616 236.43 129.089C236.622 128.562 236.91 128.058 237.293 127.579C236.91 127.243 236.538 126.979 236.178 126.788C235.819 126.596 235.483 126.452 235.172 126.356C234.812 126.26 234.464 126.2 234.129 126.176C233.458 126.176 232.774 126.296 232.079 126.536C231.408 126.776 230.785 127.135 230.209 127.615C229.658 128.094 229.202 128.705 228.843 129.448C228.483 130.168 228.304 131.019 228.304 132.002C228.304 133.152 228.483 134.195 228.843 135.13C229.202 136.041 229.766 136.928 230.533 137.791C231.3 138.654 232.271 139.529 233.446 140.416C234.644 141.303 236.071 142.274 237.725 143.329C239.666 144.551 241.333 145.774 242.723 146.996C244.137 148.219 245.288 149.477 246.175 150.772C247.086 152.066 247.757 153.433 248.189 154.871C248.62 156.286 248.836 157.82 248.836 159.474C248.836 159.762 248.836 160.061 248.836 160.373C248.836 160.661 248.812 160.972 248.764 161.308ZM292.541 161.308C292.302 164.017 291.678 166.27 290.672 168.068C289.689 169.842 288.478 171.268 287.04 172.347C285.601 173.402 284.007 174.145 282.257 174.577C280.531 175.008 278.805 175.224 277.079 175.224C275.281 175.224 273.543 174.972 271.865 174.469C270.211 173.989 268.749 173.258 267.478 172.275C266.208 171.292 265.189 170.058 264.422 168.571C263.679 167.085 263.307 165.347 263.307 163.357C263.307 161.823 263.535 160.541 263.99 159.51C264.47 158.479 265.057 157.652 265.752 157.029C266.447 156.405 267.191 155.974 267.982 155.734C268.773 155.471 269.504 155.339 270.175 155.339C270.87 155.339 271.589 155.447 272.333 155.662C273.076 155.878 273.759 156.238 274.382 156.741C275.006 157.244 275.509 157.928 275.893 158.791C276.3 159.63 276.504 160.685 276.504 161.955C276.504 161.979 276.48 162.207 276.432 162.638C276.408 163.046 276.276 163.525 276.036 164.077C275.797 164.604 275.425 165.131 274.922 165.659C274.442 166.162 273.735 166.522 272.8 166.738C273.471 167.577 274.25 168.212 275.137 168.643C276.048 169.051 276.815 169.255 277.439 169.255C278.062 169.255 278.769 169.147 279.56 168.931C280.375 168.715 281.131 168.356 281.826 167.852C282.545 167.325 283.144 166.642 283.624 165.803C284.127 164.94 284.379 163.861 284.379 162.566C284.379 161.056 284.115 159.714 283.588 158.539C283.084 157.364 282.425 156.334 281.61 155.447C280.819 154.536 279.92 153.745 278.913 153.073C277.93 152.378 276.971 151.755 276.036 151.203C275.413 150.844 274.67 150.424 273.807 149.945C272.944 149.441 272.045 148.854 271.11 148.183C270.175 147.488 269.252 146.709 268.341 145.846C267.43 144.959 266.603 143.964 265.86 142.861C265.141 141.734 264.554 140.488 264.098 139.121C263.667 137.755 263.451 136.245 263.451 134.591C263.451 132.121 263.882 129.964 264.745 128.118C265.608 126.248 266.723 124.69 268.09 123.443C269.48 122.197 271.05 121.262 272.8 120.639C274.55 120.015 276.324 119.704 278.122 119.704C279.92 119.704 281.634 119.955 283.264 120.459C284.894 120.938 286.321 121.645 287.543 122.58C288.79 123.491 289.773 124.594 290.492 125.889C291.235 127.159 291.606 128.585 291.606 130.168C291.606 131.774 291.343 133.044 290.815 133.979C290.288 134.914 289.653 135.621 288.91 136.101C288.19 136.58 287.447 136.892 286.68 137.036C285.937 137.156 285.338 137.216 284.882 137.216C284.307 137.216 283.708 137.108 283.084 136.892C282.461 136.676 281.886 136.353 281.358 135.921C280.855 135.49 280.435 134.962 280.1 134.339C279.764 133.716 279.596 132.984 279.596 132.145C279.62 131.618 279.68 131.091 279.776 130.563C279.872 130.108 280.016 129.616 280.208 129.089C280.399 128.562 280.687 128.058 281.071 127.579C280.687 127.243 280.315 126.979 279.956 126.788C279.596 126.596 279.261 126.452 278.949 126.356C278.589 126.26 278.242 126.2 277.906 126.176C277.235 126.176 276.552 126.296 275.857 126.536C275.185 126.776 274.562 127.135 273.987 127.615C273.435 128.094 272.98 128.705 272.62 129.448C272.261 130.168 272.081 131.019 272.081 132.002C272.081 133.152 272.261 134.195 272.62 135.13C272.98 136.041 273.543 136.928 274.31 137.791C275.077 138.654 276.048 139.529 277.223 140.416C278.422 141.303 279.848 142.274 281.502 143.329C283.444 144.551 285.11 145.774 286.5 146.996C287.915 148.219 289.065 149.477 289.952 150.772C290.863 152.066 291.535 153.433 291.966 154.871C292.398 156.286 292.613 157.82 292.613 159.474C292.613 159.762 292.613 160.061 292.613 160.373C292.613 160.661 292.589 160.972 292.541 161.308Z" fill="white"/>
<path d="M156.208 69.8213L150.659 79.7299H145.11L139.562 69.8213V85.2787H132.428V57.5348H139.958L147.885 72.1994L155.812 57.5348H163.342V85.2787H156.208V69.8213ZM196.254 85.2787H174.257V57.5348H196.254V63.0836H181.391V68.4342H193.083V73.9829H181.391V79.7299H196.254V85.2787ZM205.559 57.5348H221.412C224.002 57.5348 225.904 58.1293 227.12 59.3183C228.335 60.4809 228.943 62.2644 228.943 64.6689C228.943 66.2543 228.599 67.549 227.912 68.5531C227.225 69.5307 226.38 70.2177 225.376 70.614C227.516 71.1953 228.969 72.6222 229.735 74.8945C230 75.7136 230.132 76.6648 230.132 77.7482C230.132 80.3376 229.524 82.24 228.309 83.4555C227.093 84.6709 225.191 85.2787 222.601 85.2787H205.559V57.5348ZM222.998 76.5591C222.998 74.9738 222.205 74.1811 220.62 74.1811H212.693V79.7299H220.62C222.205 79.7299 222.998 78.9372 222.998 77.3518V76.5591ZM221.809 65.4616C221.809 63.8762 221.016 63.0836 219.431 63.0836H212.693V68.6323H219.431C221.016 68.6323 221.809 67.8396 221.809 66.2543V65.4616ZM261.838 85.2787H239.841V57.5348H261.838V63.0836H246.975V68.4342H258.667V73.9829H246.975V79.7299H261.838V85.2787ZM278.276 79.7299H292.743V85.2787H271.142V57.5348H278.276V79.7299Z" fill="#219653"/>
<path d="M118.964 137.737C118.543 145.984 117.07 153.136 114.546 159.194C112.022 165.169 108.782 170.302 104.827 174.593C100.956 178.8 96.5388 182.25 91.5743 184.943C86.6938 187.551 81.7293 189.613 76.6805 191.128C71.716 192.642 66.7935 193.652 61.913 194.157C57.1167 194.746 52.8674 195.04 49.165 195.04C42.0127 195.04 35.281 194.83 28.9701 194.409C22.7434 193.989 16.6428 193.273 10.6685 192.264C11.1734 186.962 11.5941 181.156 11.9307 174.846C12.2673 168.45 12.5618 161.971 12.8142 155.408C13.0667 148.76 13.235 142.239 13.3191 135.844C13.4032 129.449 13.4874 123.559 13.5715 118.174C13.6557 112.704 13.6978 107.992 13.6978 104.037C13.6978 99.9982 13.6978 97.0952 13.6978 95.3282C13.6136 83.2954 13.4453 71.6833 13.1929 60.492C13.1087 55.6957 12.9825 50.8153 12.8142 45.8507C12.7301 40.802 12.6039 35.9216 12.4356 31.2094C12.3514 26.4131 12.2252 21.9114 12.0569 17.7041C11.8886 13.4127 11.6783 9.62615 11.4258 6.34448C13.7819 6.0079 16.3483 5.75546 19.1251 5.58717C21.9861 5.41888 24.8049 5.29266 27.5817 5.20852C30.4427 5.04023 33.2195 4.95608 35.9121 4.95608C38.6889 4.87194 41.2133 4.82986 43.4852 4.82986C53.6668 4.82986 63.2594 5.58717 72.2629 7.10179C81.3506 8.6164 89.2603 11.2249 95.9919 14.9273C102.808 18.5456 108.151 23.3839 112.022 29.4424C115.976 35.4167 117.954 42.9056 117.954 51.9092C117.533 57.3786 116.187 62.5115 113.915 67.3078C112.905 69.4114 111.643 71.5571 110.128 73.7449C108.698 75.8485 106.889 77.868 104.701 79.8034C102.513 81.7387 99.9467 83.5478 97.0016 85.2307C94.0566 86.9136 90.6907 88.302 86.9042 89.3959C92.3736 90.8264 96.9596 92.9721 100.662 95.833C104.364 98.694 107.394 101.892 109.75 105.426C112.19 108.876 113.999 112.452 115.177 116.154C116.439 119.857 117.323 123.264 117.828 126.378C118.417 129.491 118.753 132.1 118.837 134.203C118.921 136.307 118.964 137.485 118.964 137.737ZM83.4963 139C83.2439 131.931 82.0658 125.578 79.9622 119.941C79.0366 117.585 77.8586 115.271 76.4281 112.999C75.0818 110.643 73.3989 108.581 71.3794 106.814C69.3599 104.963 66.9618 103.49 64.185 102.396C61.4082 101.302 58.2106 100.756 54.5924 100.756C53.6668 100.756 52.6991 100.798 51.6894 100.882C50.6796 100.966 49.5857 101.092 48.4077 101.26L47.398 172.574C49.9223 173.078 52.4046 173.331 54.8448 173.331C58.3789 173.331 61.4502 172.868 64.0587 171.943C66.7514 170.933 69.1075 169.629 71.1269 168.03C73.1464 166.347 74.8293 164.496 76.1757 162.476C77.6061 160.457 78.7842 158.353 79.7098 156.165C81.8975 151.117 83.1597 145.395 83.4963 139ZM82.9914 51.1519C82.6549 46.4397 81.4768 42.2325 79.4573 38.5301C78.6159 36.9313 77.522 35.3746 76.1757 33.86C74.9135 32.3454 73.3147 30.9991 71.3794 29.821C69.5282 28.643 67.2983 27.6753 64.6898 26.918C62.1655 26.1607 59.2204 25.7821 55.8546 25.7821C53.1619 25.7821 50.1748 26.0345 46.8931 26.5394L48.4077 80.0558H51.1845C56.4015 80.0558 60.8191 79.3826 64.4374 78.0363C68.0556 76.6058 71.0428 74.8809 73.3989 72.8614C75.7549 70.7577 77.5641 68.4858 78.8262 66.0456C80.1726 63.6054 81.1402 61.3335 81.7293 59.2298C82.3183 57.042 82.6549 55.2329 82.739 53.8025C82.9073 52.2878 82.9914 51.4043 82.9914 51.1519Z" fill="#219653"/>
</svg>
