<svg width="2068" height="1551" viewBox="0 0 2068 1551" fill="none" xmlns="http://www.w3.org/2000/svg">
<path d="M1106.36 676.019H971.8V623.691H1005.44V466.708H971.8V414.38H1106.36V466.708H1072.72V623.691H1106.36V676.019ZM1190.05 621.822C1258.33 625.56 1304.55 627.429 1328.72 627.429C1334.45 627.429 1338.94 625.809 1342.18 622.57C1345.67 619.081 1347.41 614.472 1347.41 608.74V575.101H1261.44C1235.28 575.101 1216.22 569.245 1204.26 557.534C1192.54 545.573 1186.69 526.511 1186.69 500.347V489.134C1186.69 462.97 1192.54 444.032 1204.26 432.321C1216.22 420.36 1235.28 414.38 1261.44 414.38H1392.64V466.708H1276.39C1261.44 466.708 1253.97 474.183 1253.97 489.134V496.609C1253.97 511.56 1261.44 519.036 1276.39 519.036H1343.67C1368.09 519.036 1386.03 524.767 1397.49 536.229C1408.96 547.691 1414.69 565.632 1414.69 590.052V608.74C1414.69 633.16 1408.96 651.101 1397.49 662.563C1386.03 674.026 1368.09 679.757 1343.67 679.757C1330.96 679.757 1317.51 679.508 1303.3 679.009L1268.92 677.514C1243.5 676.268 1217.21 674.524 1190.05 672.281V621.822ZM1498.38 621.822C1566.66 625.56 1612.88 627.429 1637.05 627.429C1642.78 627.429 1647.27 625.809 1650.51 622.57C1654 619.081 1655.74 614.472 1655.74 608.74V575.101H1569.77C1543.61 575.101 1524.55 569.245 1512.59 557.534C1500.88 545.573 1495.02 526.511 1495.02 500.347V489.134C1495.02 462.97 1500.88 444.032 1512.59 432.321C1524.55 420.36 1543.61 414.38 1569.77 414.38H1700.97V466.708H1584.72C1569.77 466.708 1562.3 474.183 1562.3 489.134V496.609C1562.3 511.56 1569.77 519.036 1584.72 519.036H1652C1676.42 519.036 1694.36 524.767 1705.83 536.229C1717.29 547.691 1723.02 565.632 1723.02 590.052V608.74C1723.02 633.16 1717.29 651.101 1705.83 662.563C1694.36 674.026 1676.42 679.757 1652 679.757C1639.29 679.757 1625.84 679.508 1611.64 679.009L1577.25 677.514C1551.83 676.268 1525.54 674.524 1498.38 672.281V621.822Z" fill="#219653"/>
<path d="M902.328 233.126L865.798 298.359H829.268L792.738 233.126V334.889H745.771V152.239H795.348L847.533 248.782L899.719 152.239H949.295V334.889H902.328V233.126ZM1151.62 334.889H1006.8V152.239H1151.62V188.769H1053.77V223.994H1130.74V260.524H1053.77V298.359H1151.62V334.889ZM1198.52 152.239H1302.89C1319.94 152.239 1332.47 156.153 1340.47 163.98C1348.47 171.634 1352.47 183.376 1352.47 199.206C1352.47 209.643 1350.21 218.167 1345.69 224.777C1341.16 231.213 1335.6 235.736 1328.99 238.345C1343.08 242.172 1352.64 251.565 1357.69 266.525C1359.43 271.918 1360.3 278.18 1360.3 285.312C1360.3 302.36 1356.3 314.884 1348.3 322.886C1340.29 330.888 1327.77 334.889 1310.72 334.889H1198.52V152.239ZM1313.33 277.484C1313.33 267.047 1308.11 261.829 1297.68 261.829H1245.49V298.359H1297.68C1308.11 298.359 1313.33 293.14 1313.33 282.703V277.484ZM1305.5 204.424C1305.5 193.987 1300.29 188.769 1289.85 188.769H1245.49V225.299H1289.85C1300.29 225.299 1305.5 220.08 1305.5 209.643V204.424ZM1554.68 334.889H1409.86V152.239H1554.68V188.769H1456.83V223.994H1533.81V260.524H1456.83V298.359H1554.68V334.889ZM1648.55 298.359H1743.79V334.889H1601.59V152.239H1648.55V298.359Z" fill="#219653"/>
<path d="M64.7533 20.9225H495.088C565.376 20.9225 617.016 37.06 650.008 69.3351C683.001 100.893 699.497 149.306 699.497 214.573C699.497 257.606 690.173 292.75 671.525 320.005C652.877 346.542 629.926 365.19 602.671 375.948C660.767 391.727 700.214 430.458 721.013 492.139C728.186 514.373 731.772 540.193 731.772 569.599C731.772 639.887 715.276 691.527 682.283 724.519C649.291 757.512 597.651 774.008 527.363 774.008H64.7533V20.9225ZM538.121 537.324C538.121 494.29 516.605 472.774 473.571 472.774H258.404V623.391H473.571C516.605 623.391 538.121 601.874 538.121 558.841V537.324ZM505.846 236.09C505.846 193.056 484.33 171.54 441.296 171.54H258.404V322.157H441.296C484.33 322.157 505.846 300.64 505.846 257.606V236.09Z" fill="#219653"/>
<rect x="787.149" y="416.333" width="66.6511" height="358.89" fill="#219653"/>
<rect x="831.206" y="775.223" width="66.6511" height="915.256" transform="rotate(-90 831.206 775.223)" fill="#219653"/>
<path d="M109.334 1035.99L62.205 988.86L264.62 786.445L358.879 786.445L109.334 1035.99Z" fill="#219653"/>
<rect x="1688.13" y="1035.99" width="66.6511" height="536.816" transform="rotate(-135 1688.13 1035.99)" fill="#219653"/>
<rect x="1688.13" y="1550.08" width="66.6511" height="536.816" transform="rotate(-135 1688.13 1550.08)" fill="#219653"/>
<rect x="109.335" y="1035.99" width="66.6511" height="1531.67" transform="rotate(-90 109.335 1035.99)" fill="#219653"/>
<rect x="117.73" y="1550.08" width="66.6511" height="1523.27" transform="rotate(-90 117.73 1550.08)" fill="#219653"/>
<rect x="690.838" y="675.925" width="66.6511" height="68.2027" transform="rotate(-90 690.838 675.925)" fill="#219653"/>
<rect x="1804.48" y="675.925" width="66.6511" height="216.073" transform="rotate(-90 1804.48 675.925)" fill="#219653"/>
<rect x="128.856" y="1550.08" width="66.6511" height="561.279" transform="rotate(180 128.856 1550.08)" fill="#219653"/>
<rect x="577.816" y="1502.96" width="66.6511" height="483.277" transform="rotate(180 577.816 1502.96)" fill="#219653"/>
<rect x="1175.65" y="1510.31" width="66.6511" height="506.719" transform="rotate(180 1175.65 1510.31)" fill="#219653"/>
<rect x="1688.13" y="1550.08" width="66.6511" height="580.746" transform="rotate(180 1688.13 1550.08)" fill="#219653"/>
<rect x="2067.72" y="1170.55" width="66.6511" height="561.279" transform="rotate(180 2067.72 1170.55)" fill="#219653"/>
<rect x="1265.4" y="1108.74" width="266.339" height="39.1304" fill="#219653"/>
<rect x="659.055" y="1114.76" width="135.188" height="29.1304" stroke="#219653" stroke-width="10"/>
<rect x="892.576" y="1114.76" width="135.188" height="29.1304" stroke="#219653" stroke-width="10"/>
<rect x="667.055" y="1282.45" width="352.709" height="70.5804" stroke="#219653" stroke-width="26"/>
<rect x="193.001" y="1108.74" width="266.339" height="39.1304" fill="#219653"/>
</svg>
