<svg width="116" height="81" viewBox="0 0 116 81" fill="none" xmlns="http://www.w3.org/2000/svg">
<path d="M115.592 0.0454102H0.034668V40.671H8.11836C5.09171 44.649 5.39058 50.3655 9.02203 53.996C10.8594 55.8342 13.2318 56.819 15.6422 56.9513C15.7745 59.3616 16.7592 61.7341 18.5974 63.5723C20.4348 65.4096 22.8072 66.3944 25.2176 66.5267C25.3499 68.937 26.3346 71.3095 28.1728 73.1477C31.546 76.5209 36.5977 76.967 40.3967 74.7876C40.8895 75.931 41.6028 77.0022 42.5364 77.935C46.4958 81.8953 52.9397 81.8953 56.8991 77.935L57.8151 77.0199L57.8539 77.0595C61.7754 80.9801 68.1646 80.9801 72.0975 77.0604L72.1972 76.9608C73.0338 76.1276 73.7056 75.1728 74.1958 74.136C78.1588 77.0657 83.8039 76.7536 87.4097 73.1468C89.1959 71.3615 90.2336 69.027 90.3685 66.5249C92.778 66.3918 95.1487 65.4079 96.9851 63.5714C98.8225 61.735 99.8055 59.3643 99.9386 56.9548C102.441 56.8199 104.775 55.7822 106.561 53.996C110.214 50.3434 110.492 44.6357 107.466 40.6702H115.592V0.0454102ZM13.8093 49.2088C12.4895 47.889 12.4895 45.7413 13.8093 44.4206L17.5589 40.671H21.4381C22.4079 41.6338 23.3847 42.6053 24.2945 43.5117L18.5974 49.2088C17.2741 50.5321 15.1326 50.5321 13.8093 49.2088ZM23.3847 58.7842C22.0649 57.4644 22.0649 55.3167 23.3847 53.9969L29.088 48.2936L33.8752 53.0818L28.1728 58.7842C26.8522 60.104 24.7045 60.104 23.3847 58.7842ZM37.7483 68.3596C36.4249 69.6829 34.2834 69.6829 32.961 68.3596C31.6403 67.0398 31.6403 64.8921 32.961 63.5723L38.6634 57.869L43.4515 62.6572C35.6852 70.4235 38.4104 67.6975 37.7483 68.3596ZM52.1118 73.1477C50.7911 74.4675 48.6435 74.4675 47.3237 73.1477C46.0065 71.8306 46.0039 69.6891 47.3149 68.3684L48.2388 67.4445L53.0261 72.2326L52.1118 73.1477ZM101.773 49.2088C100.45 50.5312 98.3085 50.5321 96.9851 49.2088L78.4153 30.6389L73.6272 35.4262L92.1979 53.996C93.5177 55.3167 93.5177 57.4644 92.1979 58.7842C90.8772 60.104 88.7295 60.104 87.4097 58.7842L68.8399 40.2143L64.0518 45.0016L82.6225 63.5723C83.9449 64.8956 83.9449 67.0362 82.6225 68.3605C81.3018 69.6794 79.1541 69.6803 77.8343 68.3605C77.8343 68.3605 62.1034 52.6286 59.2645 49.7898L54.4764 54.5779L67.4064 67.5079C68.7112 68.8127 68.698 70.8899 67.4222 72.1621L67.3182 72.2652C66.0249 73.5542 63.9275 73.5568 62.642 72.2723C44.9274 54.5761 41.7897 51.3785 24.2258 33.9001H6.8056V6.81635H36.2292L20.9911 22.0545L28.1728 29.2363C32.1411 33.2054 38.5664 33.2063 42.5364 29.2363L50.785 20.9877C59.4329 27.1918 71.0158 28.1862 80.6749 23.3232L101.773 44.4206C103.096 45.7439 103.097 47.8854 101.773 49.2088ZM108.821 33.9001H100.828L81.7444 14.8163L79.4601 16.2445C71.1039 21.4708 60.1391 20.5187 52.796 13.9294L50.4085 11.7879L37.7483 24.4481C36.4249 25.7714 34.2834 25.7714 32.961 24.4481L30.5665 22.0545L45.8046 6.81635H108.821V33.9001Z" fill="white"/>
</svg>
