<svg width="51" height="48" viewBox="0 0 51 48" fill="none" xmlns="http://www.w3.org/2000/svg">
<path d="M23.1709 2.15632C24.4175 0.179664 27.3356 0.179665 28.5822 2.15632L34.8682 12.1236C35.3068 12.8191 36.0036 13.3182 36.81 13.5145L48.3678 16.3284C50.6598 16.8864 51.5615 19.6224 50.0399 21.4021L42.3671 30.3761C41.8317 31.0022 41.5656 31.8098 41.6254 32.6266L42.4825 44.3329C42.6525 46.6544 40.2917 48.3454 38.1047 47.4687L27.0767 43.0476C26.3072 42.7391 25.4459 42.7391 24.6765 43.0476L13.6484 47.4687C11.4614 48.3454 9.10063 46.6545 9.27061 44.3329L10.1277 32.6266C10.1875 31.8098 9.92137 31.0022 9.386 30.3761L1.71319 21.4021C0.19157 19.6224 1.0933 16.8864 3.38536 16.3284L14.9431 13.5145C15.7496 13.3182 16.4463 12.8191 16.8849 12.1236L23.1709 2.15632Z" fill="white"/>
</svg>
