<svg width="45" height="46" viewBox="0 0 45 46" fill="none" xmlns="http://www.w3.org/2000/svg">
<g clip-path="url(#clip0)">
<path fill-rule="evenodd" clip-rule="evenodd" d="M0.277344 0.606201V45.6062H44.2773V0.606201H0.277344ZM33.2626 25.5023C34.2727 26.5101 35.3408 27.4589 36.2474 28.5731C36.6479 29.0654 37.0268 29.5732 37.3156 30.1437C37.7255 30.961 37.354 31.8565 36.6401 31.9058L32.2038 31.9039C31.0588 32.0001 30.1463 31.5279 29.3767 30.7267C28.7648 30.0888 28.1928 29.406 27.602 28.7464C27.3616 28.4748 27.1074 28.2209 26.8053 28.0183C26.1992 27.6167 25.6736 27.7386 25.3272 28.3842C24.9749 29.0417 24.8921 29.7718 24.8596 30.5041C24.8114 31.5729 24.496 31.8525 23.4471 31.9039C21.2028 32.0103 19.0743 31.6615 17.0976 30.5061C15.3519 29.4867 14.001 28.0455 12.8249 26.4159C10.5328 23.2388 8.77737 19.7509 7.2012 16.1626C6.84495 15.3538 7.10518 14.9205 7.97473 14.9048C9.42432 14.8756 10.8733 14.8791 12.3209 14.9028C12.9097 14.9129 13.3004 15.2571 13.5256 15.826C14.309 17.7947 15.2672 19.6683 16.47 21.4067C16.7918 21.8692 17.1189 22.3298 17.5825 22.6564C18.0964 23.0187 18.4891 22.9003 18.7314 22.3117C18.8857 21.9379 18.9532 21.5403 18.9857 21.1406C19.1009 19.7725 19.1148 18.403 18.9162 17.0389C18.793 16.1863 18.3216 15.635 17.4903 15.4738C17.0666 15.3911 17.1301 15.2319 17.3342 14.9835C17.6924 14.5567 18.0294 14.2906 18.697 14.2906H23.7108C24.5015 14.4483 24.6789 14.8126 24.7863 15.6254L24.7903 21.324C24.7809 21.6389 24.9445 22.5716 25.4968 22.7782C25.9392 22.9279 26.2339 22.5635 26.4994 22.2763C27.7002 20.9732 28.557 19.4323 29.3226 17.8379C29.6615 17.137 29.9542 16.4089 30.239 15.6802C30.4489 15.141 30.776 14.8755 31.3707 14.885L36.1978 14.8911C36.3401 14.8911 36.4865 14.8911 36.627 14.9147C37.4389 15.0583 37.6622 15.4166 37.4099 16.2294C37.0157 17.5028 36.2436 18.5659 35.4913 19.6307C34.6847 20.7706 33.8264 21.8705 33.0258 23.0164C32.2945 24.0656 32.3522 24.5932 33.2626 25.5023Z" fill="white"/>
</g>
<defs>
<clipPath id="clip0">
<rect x="0.277344" y="0.606201" width="44" height="45" rx="12" fill="white"/>
</clipPath>
</defs>
</svg>
