<svg width="23" height="23" viewBox="0 0 23 23" fill="none" xmlns="http://www.w3.org/2000/svg">
<path d="M11.7203 0.318405H11.7148C5.64965 0.318405 0.717529 5.2519 0.717529 11.3184C0.717529 13.7247 1.49303 15.9549 2.81165 17.7658L1.44078 21.8523L5.6689 20.5007C7.40828 21.6529 9.48315 22.3184 11.7203 22.3184C17.7854 22.3184 22.7175 17.3835 22.7175 11.3184C22.7175 5.25328 17.7854 0.318405 11.7203 0.318405ZM18.1209 15.8518C17.8555 16.6012 16.8023 17.2227 15.9622 17.4042C15.3874 17.5265 14.6367 17.6242 12.1094 16.5764C8.87678 15.2372 6.79503 11.9523 6.63278 11.7392C6.4774 11.526 5.32653 9.99978 5.32653 8.42128C5.32653 6.84278 6.12815 6.07416 6.45128 5.74416C6.71665 5.47328 7.15528 5.34953 7.57603 5.34953C7.71215 5.34953 7.83453 5.35641 7.94453 5.36191C8.26765 5.37566 8.4299 5.39491 8.64303 5.90503C8.9084 6.54441 9.55465 8.12291 9.63165 8.28516C9.71003 8.44741 9.7884 8.66741 9.6784 8.88053C9.57528 9.10053 9.48453 9.19816 9.32228 9.38515C9.16003 9.57215 9.00603 9.71516 8.84378 9.9159C8.69528 10.0905 8.52753 10.2775 8.71453 10.6007C8.90153 10.9169 9.54778 11.9715 10.4993 12.8185C11.7272 13.9117 12.7227 14.2609 13.0788 14.4094C13.3442 14.5194 13.6604 14.4933 13.8543 14.287C14.1004 14.0217 14.4043 13.5817 14.7137 13.1485C14.9337 12.8378 15.2114 12.7993 15.5029 12.9093C15.7999 13.0124 17.3715 13.7893 17.6947 13.9502C18.0178 14.1124 18.2309 14.1894 18.3093 14.3255C18.3863 14.4617 18.3863 15.101 18.1209 15.8518Z" fill="white"/>
</svg>
