<svg width="124" height="124" viewBox="0 0 124 124" fill="none" xmlns="http://www.w3.org/2000/svg">
<g clip-path="url(#clip0)">
<path d="M62.0013 50.1934C47.2965 50.1934 33.8457 57.6714 26.023 70.1945C24.1289 73.2288 25.0513 77.2243 28.0856 79.1211C31.1172 81.0126 35.1154 80.0928 37.0121 77.0559C42.451 68.347 51.7947 63.1492 62.0013 63.1492C72.2079 63.1492 81.549 68.347 86.9904 77.0559C88.2187 79.0252 90.3305 80.1057 92.4889 80.1057C93.6627 80.1057 94.8468 79.787 95.9144 79.1211C98.9487 77.2269 99.8711 73.2314 97.977 70.1945C90.1569 57.6714 76.7087 50.1934 62.0013 50.1934Z" fill="white"/>
<path d="M123.018 54.5958C109.775 33.382 86.9645 20.719 62.0013 20.719C37.0381 20.719 14.2307 33.382 0.984638 54.5958C-0.909501 57.6301 0.0129522 61.6256 3.0472 63.5198C6.08404 65.4113 10.0796 64.4915 11.9738 61.4572C22.8359 44.0602 41.5389 33.6748 62.0013 33.6748C82.4637 33.6748 101.167 44.0602 112.029 61.4572C113.257 63.4239 115.369 64.5044 117.527 64.5044C118.698 64.5044 119.885 64.1883 120.953 63.5198C123.99 61.6231 124.912 57.6301 123.018 54.5958Z" fill="white"/>
<path d="M62.0013 103.281C67.8887 103.281 72.6613 98.5086 72.6613 92.6212C72.6613 86.7338 67.8887 81.9612 62.0013 81.9612C56.1139 81.9612 51.3412 86.7338 51.3412 92.6212C51.3412 98.5086 56.1139 103.281 62.0013 103.281Z" fill="white"/>
</g>
<defs>
<clipPath id="clip0">
<rect width="124" height="124" fill="white"/>
</clipPath>
</defs>
</svg>
